<svg width="28" height="28" viewBox="0 0 28 28" fill="none" xmlns="http://www.w3.org/2000/svg">
<path d="M13.9902 19.3221C18.9736 19.3221 23.0869 15.2445 23.0869 10.3129C23.0869 5.38138 18.9648 1.30371 13.9814 1.30371C9.00684 1.30371 4.90234 5.38138 4.90234 10.3129C4.90234 15.2445 9.01562 19.3221 13.9902 19.3221ZM10.9932 14.1118C10.5273 14.1118 10.1582 13.7458 10.1582 13.2753C10.1582 13.0662 10.2461 12.8571 10.4131 12.7003L12.8037 10.3216L10.4131 7.9517C10.2461 7.79487 10.1582 7.58576 10.1582 7.37665C10.1582 6.90615 10.5273 6.54892 10.9932 6.54892C11.2393 6.54892 11.4326 6.62733 11.5908 6.78417L13.9902 9.15409L16.3984 6.77545C16.5742 6.60991 16.7588 6.53149 16.9961 6.53149C17.4619 6.53149 17.8311 6.89744 17.8311 7.35922C17.8311 7.57705 17.7432 7.76873 17.5762 7.94299L15.1855 10.3216L17.5762 12.6916C17.7344 12.8571 17.8223 13.0575 17.8223 13.2753C17.8223 13.7458 17.4531 14.1118 16.9785 14.1118C16.7412 14.1118 16.5391 14.0246 16.3721 13.8678L13.9902 11.5066L11.6084 13.8678C11.4502 14.0334 11.2393 14.1118 10.9932 14.1118Z" fill="#979696"/>
</svg>
