<svg width="35" height="35" viewBox="0 0 35 35" fill="none" xmlns="http://www.w3.org/2000/svg">
<path d="M17.4888 28.4277C23.718 28.4277 28.8596 23.2861 28.8596 17.0679C28.8596 10.8496 23.707 5.70801 17.4778 5.70801C11.2595 5.70801 6.12891 10.8496 6.12891 17.0679C6.12891 23.2861 11.2705 28.4277 17.4888 28.4277ZM10.875 10.1794C11.9626 9.13574 13.303 8.33374 14.7861 7.8833C14.0061 8.66333 13.3469 9.77295 12.8525 11.1133C12.0835 10.8716 11.4133 10.553 10.875 10.1794ZM20.2024 7.89429C21.6855 8.34473 23.0149 9.13574 24.1025 10.1904C23.5642 10.564 22.905 10.8716 22.136 11.1243C21.6416 9.77295 20.9824 8.67432 20.2024 7.89429ZM14.3796 11.4978C14.9839 9.88281 15.8079 8.69629 16.7197 8.26782V11.7395C15.8848 11.7065 15.1047 11.6296 14.3796 11.4978ZM18.2578 8.26782C19.1697 8.69629 20.0046 9.88281 20.5979 11.4978C19.8838 11.6296 19.0928 11.7065 18.2578 11.7395V8.26782ZM7.94165 16.2988C8.09546 14.4421 8.7876 12.7283 9.86426 11.322C10.5234 11.8164 11.3914 12.2449 12.4021 12.5635C12.1165 13.6951 11.9407 14.9585 11.8857 16.2988H7.94165ZM23.0918 16.2988C23.0479 14.9585 22.8611 13.6951 22.5754 12.5635C23.5862 12.2449 24.4541 11.8164 25.1133 11.322C26.1899 12.7283 26.8821 14.4421 27.0359 16.2988H23.0918ZM18.2578 16.2988V13.2776C19.2356 13.2446 20.1804 13.1348 21.0483 12.959C21.301 13.9807 21.4768 15.1123 21.5208 16.2988H18.2578ZM13.4568 16.2988C13.5117 15.1123 13.6765 13.9807 13.9292 12.959C14.8081 13.1348 15.7419 13.2446 16.7197 13.2776V16.2988H13.4568ZM7.94165 17.8369H11.8857C11.9297 19.1992 12.1165 20.4736 12.4131 21.6272C11.4133 21.9458 10.5454 22.3633 9.88623 22.8467C8.79858 21.4294 8.09546 19.7046 7.94165 17.8369ZM13.4568 17.8369H16.7197V20.9131C15.7529 20.946 14.8081 21.0559 13.9402 21.2317C13.6765 20.188 13.5117 19.0344 13.4568 17.8369ZM18.2578 20.9131V17.8369H21.5317C21.4768 19.0344 21.301 20.188 21.0374 21.2317C20.1694 21.0559 19.2356 20.946 18.2578 20.9131ZM22.5754 21.6272C22.8611 20.4736 23.0479 19.1992 23.1028 17.8369H27.0359C26.8821 19.7046 26.179 21.4294 25.0913 22.8467C24.4321 22.3633 23.5752 21.9458 22.5754 21.6272ZM18.2578 22.4512C19.0928 22.4841 19.8618 22.561 20.5869 22.6929C19.9937 24.2749 19.1697 25.4504 18.2578 25.8789V22.4512ZM14.4016 22.6929C15.1157 22.561 15.8958 22.4841 16.7197 22.4512V25.8789C15.8188 25.4504 14.9949 24.2749 14.4016 22.6929ZM10.908 23.9783C11.4463 23.6157 12.1055 23.3081 12.8635 23.0664C13.3469 24.3848 14.0061 25.4724 14.7642 26.2415C13.303 25.802 11.9846 25.011 10.908 23.9783ZM22.125 23.0664C22.8831 23.3081 23.5422 23.6157 24.0806 23.9783C22.9929 25.011 21.6746 25.802 20.2134 26.2415C20.9824 25.4724 21.6306 24.3848 22.125 23.0664Z" fill="#9D8561"/>
</svg>
